<svg xmlns="http://www.w3.org/2000/svg" width="178" height="40" viewBox="0 0 133.5 30"><defs><clipPath id="m"><use href="#a"></use></clipPath><clipPath id="n"><use href="#a"></use></clipPath><clipPath id="o"><path d="M34 18h97.1v11H34Zm0 0"></path></clipPath><clipPath id="p"><use href="#b"></use></clipPath><clipPath id="q"><path d="M33 18h98v11H33Zm0 0"></path></clipPath><clipPath id="r"><use href="#b"></use></clipPath><clipPath id="t"><path d="M1 5h11.7v12H1Zm0 0"></path></clipPath><clipPath id="s"><path d="M0 0h13v22H0z"></path></clipPath><clipPath id="v"><use href="#c"></use></clipPath><clipPath id="u"><use href="#d"></use></clipPath><clipPath id="x"><path d="M2 8.2h10v3H2Zm0 0"></path></clipPath><clipPath id="z"><use href="#e"></use></clipPath><clipPath id="y"><use href="#f"></use></clipPath><clipPath id="A"><path d="M2 0h10v1H2Zm0 0"></path></clipPath><clipPath id="C"><use href="#g"></use></clipPath><clipPath id="B"><use href="#h"></use></clipPath><clipPath id="D"><path d="M2 6.5h10v1H2Zm0 0"></path></clipPath><clipPath id="F"><use href="#i"></use></clipPath><clipPath id="E"><use href="#h"></use></clipPath><clipPath id="G"><path d="M10.9 0h1v7.6h-1Zm0 0"></path></clipPath><clipPath id="I"><path d="M.9 0h1v7.6H1Zm0 0"></path></clipPath><clipPath id="H"><use href="#j"></use></clipPath><clipPath id="J"><path d="M2 0h1v7.6H2Zm0 0"></path></clipPath><clipPath id="L"><path d="M1 0h1v7.6H1Zm0 0"></path></clipPath><clipPath id="K"><use href="#j"></use></clipPath><clipPath id="M"><path d="M20.9 26h10v3H21Zm0 0"></path></clipPath><clipPath id="O"><use href="#k"></use></clipPath><clipPath id="N"><use href="#f"></use></clipPath><clipPath id="P"><path d="M20.9 17.8h10V19H21Zm0 0"></path></clipPath><clipPath id="R"><path d="M.9.8h10V2H1Zm0 0"></path></clipPath><clipPath id="Q"><use href="#h"></use></clipPath><clipPath id="S"><path d="M20.9 24.3h10v1H21Zm0 0"></path></clipPath><clipPath id="U"><path d="M.9.3h10v1H1Zm0 0"></path></clipPath><clipPath id="T"><use href="#h"></use></clipPath><clipPath id="V"><path d="M29.9 17.8h1v7.6h-1Zm0 0"></path></clipPath><clipPath id="X"><path d="M.9.8h1v7.6H1Zm0 0"></path></clipPath><clipPath id="W"><use href="#l"></use></clipPath><clipPath id="Y"><path d="M20.9 17.8h1v7.6h-1Zm0 0"></path></clipPath><clipPath id="aa"><path d="M.9.8h1v7.6H1Zm0 0"></path></clipPath><clipPath id="Z"><use href="#l"></use></clipPath><clipPath id="ac"><use href="#c"></use></clipPath><clipPath id="ab"><use href="#d"></use></clipPath><path id="a" d="M0 0h100v26H0z"></path><path id="b" d="M0 0h98v12H0z"></path><path id="c" d="M1 5h11.8v12H1Zm0 0"></path><path id="d" d="M0 0h13v23H0z"></path><path id="f" d="M0 0h11v4H0z"></path><path id="h" d="M0 0h11v2H0z"></path><path id="j" d="M0 0h2v8H0z"></path><path id="l" d="M0 0h2v9H0z"></path><path id="w" fill="#394fb7" d="M9 9.1q-.3-.5-.8-.8T6.9 8q-1.3 0-2 .9Q4 9.7 4 11t.8 2.3a3 3 0 0 0 2.2.9q1 0 1.6-.5t1-1.4H6.4v-2H12V13a5 5 0 0 1-1 1.8A5 5 0 0 1 9.3 16q-1 .5-2.4.5-1.6 0-2.8-.7a5 5 0 0 1-2-2q-.7-1.2-.7-2.8t.7-2.8a5 5 0 0 1 2-2q1.2-.7 2.8-.7 2 0 3.2 1 1.4.9 1.8 2.5Zm0 0"></path><path id="e" d="M1 .2h10v3H1Zm0 0"></path><path id="g" d="M1 0h10v1H1Zm0 0"></path><path id="i" d="M1 .5h10v1H1Zm0 0"></path><path id="k" d="M.9 0h10v3H1Zm0 0"></path></defs><g clip-path="url(#m)" transform="translate(31)"><path d="M11.9 7.6a3 3 0 0 0-1.2-1.2Q10 6 9 6 7.2 6 6.1 7.2t-1 3q0 2.1 1 3.3a4 4 0 0 0 3.1 1.2q1.4 0 2.3-.7 1-.7 1.4-2H8.2V9.3h8v3.4a7 7 0 0 1-1.4 2.6q-1 1.1-2.5 1.9t-3.3.7a8 8 0 0 1-4-1 7 7 0 0 1-2.7-2.7q-1-1.7-1-4 0-2.1 1-3.9A7 7 0 0 1 5 3.6q1.7-1 4-1 2.6 0 4.5 1.3t2.4 3.7ZM27.5 15H22l-.9 2.7h-3.8l5.4-15h4.2l5.5 15h-4Zm-1-2.8-1.8-5.5-1.8 5.5Zm11 2.7h4.8v2.8H34v-15h3.7Zm15.9.1h-5.6l-.9 2.7h-3.8l5.4-15h4.2l5.5 15h-4Zm-1-2.8-1.8-5.5-1.8 5.5ZM65.3 18q-1.6 0-3-.5-1.2-.5-2-1.6-.8-1-.8-2.5h3.9q0 .8.5 1.3t1.3.4 1.3-.4.4-1q0-.5-.3-1l-1-.5-1.5-.5-2.4-1-1.5-1.3q-.7-.8-.7-2.2 0-2.1 1.5-3.3t4-1.2 4 1.2T70.5 7h-4q0-.7-.5-1.2t-1.3-.4q-.6 0-1 .4-.4.3-.4 1t.6 1.1 2.2.9l2.3 1A5 5 0 0 1 70 11q.7.9.7 2.2t-.7 2.4-1.9 1.6-2.9.6M76.5 3v8.9q0 1.3.7 2 .6.8 1.9.8t2-.8.6-2v-9h3.7v9q0 2-.9 3.3a6 6 0 0 1-2.3 2.1q-1.5.7-3.2.7a7 7 0 0 1-3.1-.6 5 5 0 0 1-2.2-2.1q-.8-1.4-.8-3.4v-9Zm16.9 15q-1.7 0-3-.5t-2-1.6-.9-2.5h4q0 .8.5 1.3t1.3.4 1.2-.4.5-1q0-.5-.4-1l-.9-.5-1.5-.5q-1.5-.5-2.4-1a5 5 0 0 1-1.6-1.3q-.6-.8-.6-2.2 0-2.1 1.5-3.3t4-1.2 4 1.2Q98.4 5 98.5 7h-4q0-.7-.5-1.2t-1-.3-1 .4-.5 1 .7 1.1l2.1.9q1.5.5 2.4 1a5 5 0 0 1 1.6 1.2q.6.9.6 2.2t-.6 2.4-2 1.6-2.8.6m0 0"></path></g><g fill="#394fb7" clip-path="url(#n)" transform="translate(30)"><path d="M11.7 7.6a3 3 0 0 0-1.2-1.2Q9.8 6 8.7 6 7 6 6 7.2t-1 3q0 2.1 1 3.3a4 4 0 0 0 3 1.2q1.5 0 2.3-.7 1-.7 1.4-2H8V9.3h8v3.4a7 7 0 0 1-1.4 2.6q-1 1.1-2.5 1.9t-3.3.7a8 8 0 0 1-4-1A7 7 0 0 1 2 14.2a8 8 0 0 1-1-4q0-2.1 1-3.9a7 7 0 0 1 2.7-2.7q1.7-1 4-1 2.6 0 4.5 1.3t2.4 3.7ZM27.3 15h-5.6l-.9 2.7H17l5.4-15h4.2l5.5 15h-4Zm-1-2.8-1.8-5.5-1.8 5.5Zm11 2.7h4.8v2.8h-8.4v-15h3.6Zm15.9.1h-5.6l-.9 2.7H43l5.4-15h4.2l5.5 15h-4Zm-1-2.8-1.8-5.5-1.8 5.5ZM65 18q-1.6 0-3-.5-1.2-.5-2-1.6-.8-1-.8-2.5H63q0 .8.5 1.3t1.3.4 1.3-.4.4-1q0-.5-.3-1l-1-.5-1.5-.5-2.4-1L60 9.4q-.7-.8-.7-2.2 0-2.1 1.5-3.3 1.6-1.2 4-1.2t4 1.2Q70.2 5 70.3 7h-4q0-.7-.5-1.2t-1.3-.4q-.6 0-1 .4-.4.3-.4 1t.6 1.1T66 9l2.3 1a5 5 0 0 1 1.6 1.2q.7.9.7 2.2t-.7 2.4-1.9 1.6-2.9.6M76.3 3v8.9q0 1.3.6 2 .7.8 2 .8t2-.8q.6-.7.6-2v-9h3.7v9q0 2-.9 3.3a6 6 0 0 1-2.3 2.1q-1.4.7-3.2.7a7 7 0 0 1-3.1-.6 5 5 0 0 1-2.3-2.1q-.7-1.4-.7-3.4v-9Zm16.9 15q-1.7 0-3-.5t-2-1.6-.9-2.5h3.9q0 .8.6 1.3t1.3.4 1.2-.4.5-1q0-.5-.4-1l-.9-.5-1.5-.5q-1.5-.5-2.4-1A5 5 0 0 1 88 9.4q-.6-.8-.6-2.2 0-2.1 1.5-3.3t4-1.2 4 1.2Q98.2 5 98.3 7h-4q0-.7-.5-1.2t-1.2-.4-1 .4q-.5.3-.5 1T92 8q.7.5 2.1.9t2.4 1L98 11q.6.9.6 2.2t-.6 2.4-2 1.6-2.8.6m0 0"></path></g><g clip-path="url(#o)"><g clip-path="url(#p)" transform="translate(34 18)"><path d="M2.5 3.7v5.8H1.1V3.7Zm5.2 0V5H6.2v4.7H4.8V4.9H3.2V3.7Zm7 1.9q0 .5-.3 1l-.7.6q-.5.3-1.2.3h-.9v2h-1.4V3.8h2.3q.7 0 1.2.3l.7.6zm-2.2.7q.4 0 .6-.2l.2-.5q0-.3-.2-.5t-.6-.2h-.8v1.4ZM19 8.5h-2.2l-.3 1H15l2-5.8h1.7l2.1 5.8h-1.5Zm-.4-1L18 5.2l-.7 2.1Zm5.9 2-1.3-2.2H23v2.2h-1.4V3.7H24q.6 0 1.1.3t.8.6.2 1-.3 1-1 .6l1.4 2.3Zm-1.6-3.2h.9l.6-.1q.2-.2.2-.6t-.2-.5-.6-.2h-.9Zm8.2-2.6V5h-1.6v4.7h-1.4V4.9h-1.5V3.7ZM37 9.6h-1.4L33.2 6v3.6h-1.4V3.7h1.4l2.4 3.6V3.7H37Zm2.5-4.7V6h1.9v1.1h-2v1.3h2.2v1.1H38V3.8h3.6V5Zm6 4.6-1.2-2.2H44v2.2h-1.5V3.7H45q.7 0 1.2.3t.7.6.2 1-.3 1-1 .6l1.4 2.3ZM44 6.3h.8l.6-.1.2-.6q0-.3-.2-.5t-.6-.2H44Zm7.8 3.3q-.6 0-1.1-.2l-.9-.6q-.3-.4-.3-1H51q0 .3.3.5 0 .2.5.2.3 0 .5-.2l.1-.4-.1-.3-.4-.3-.6-.2-.9-.3-.6-.5q-.3-.4-.3-1t.6-1.2q.6-.5 1.6-.5t1.5.5.7 1.3h-1.6l-.2-.5-.5-.1-.4.1-.2.4q0 .3.3.5l.9.3.9.4q.3.1.6.5.2.3.2.8l-.2 1-.8.6q-.4.2-1 .2m5.6 0L56 9.2l-1-1a3 3 0 0 1-.4-1.6q0-.8.4-1.5t1-1a3 3 0 0 1 1.5-.5q.9 0 1.5.4t1.1 1.1.4 1.5-.4 1.6-1 1-1.6.4m0-1.3q.8 0 1.2-.5t.4-1.2-.4-1.2q-.5-.5-1.2-.5t-1 .5-.5 1.2.4 1.3 1.1.4m5.2.2h1.9v1h-3.3V3.8h1.4Zm4-4.8v3.5q0 .5.2.8t.8.3.7-.3.3-.8V3.7h1.4v3.5q0 .8-.3 1.3l-.9.8q-.6.3-1.2.3-.8 0-1.3-.3l-.8-.8q-.4-.5-.4-1.3V3.7Zm6.5 6q-.6 0-1.1-.3l-.8-.6q-.3-.4-.3-1h1.5q0 .3.2.5t.5.2.5-.2l.2-.4-.2-.3-.3-.3-.6-.2-1-.3-.6-.5q-.2-.4-.2-1 0-.8.6-1.2.6-.5 1.5-.5t1.5.5.7 1.3h-1.5l-.3-.5-.5-.1-.4.1-.1.4q0 .3.2.5l.9.3.9.4q.3.1.6.5.3.3.3.8t-.3 1l-.7.6q-.5.2-1.2.2m4.5-5.9v5.8h-1.5V3.7Zm6.2 5.8h-1.4L80 6v3.6h-1.4V3.7H80l2.4 3.6V3.7h1.4ZM87 3.7q1 0 1.6.4t1 1 .4 1.5a3 3 0 0 1-.3 1.6q-.4.6-1.1 1-.7.3-1.6.3h-2.2V3.7Zm0 4.6q.7 0 1.2-.4t.4-1.3-.4-1.2q-.5-.5-1.3-.5h-.7v3.4Zm6.6 1.3-1.5-.4-1.1-1a3 3 0 0 1-.4-1.6q0-.8.4-1.5t1.1-1a3 3 0 0 1 1.5-.5q.8 0 1.5.4t1 1.1q.5.7.5 1.5t-.4 1.6q-.4.6-1.1 1t-1.5.4m0-1.3q.7 0 1.1-.5t.4-1.2-.4-1.2-1.1-.5-1.1.5-.5 1.2.5 1.3 1.1.4m0 0"></path></g></g><g clip-path="url(#q)"><g fill="#394fb7" clip-path="url(#r)" transform="translate(33 18)"><path d="M2.6 3.7v5.8H1.2V3.7Zm5.2 0V5H6.3v4.7H4.9V4.9H3.3V3.7Zm7 1.9q0 .5-.3 1l-.7.6q-.5.3-1.2.3h-.9v2h-1.4V3.8h2.3q.7 0 1.2.3.4.1.7.6zm-2.2.7q.4 0 .6-.2.2-.1.2-.5 0-.3-.2-.5t-.6-.2h-.8v1.4ZM19 8.5h-2.2l-.3 1H15l2-5.8h1.7L21 9.5h-1.5Zm-.4-1L18 5.2l-.7 2.1Zm5.8 2-1.2-2.2H23v2.2h-1.4V3.7h2.3q.7 0 1.2.3t.8.6.2 1-.3 1-1 .6l1.4 2.3ZM23 6.4h.9l.6-.1q.2-.2.2-.6t-.3-.5q-.1-.2-.5-.2H23Zm8.2-2.6V5h-1.6v4.7h-1.4V4.9h-1.5V3.7ZM37 9.6h-1.4L33.3 6v3.6H32V3.7h1.4l2.4 3.6V3.7H37Zm2.4-4.7V6h2v1.1h-2v1.3h2.2v1.1H38V3.8h3.6V5Zm6 4.7-1.1-2.3H44v2.2h-1.4V3.7H45q.7 0 1.2.3t.7.6l.2 1q0 .5-.3 1t-1 .6l1.4 2.3ZM44 6.3h1l.5-.1q.2-.2.2-.6t-.2-.5-.6-.2H44Zm8 3.3q-.7 0-1.2-.2l-.8-.6q-.3-.4-.3-1h1.5q0 .3.2.5t.5.2q.4 0 .5-.2l.2-.4-.1-.3-.4-.3-.6-.2-.9-.3-.6-.5q-.3-.4-.3-1 0-.8.6-1.2.6-.5 1.6-.5t1.5.5.6 1.3h-1.5l-.2-.5-.5-.1-.4.1-.2.4q0 .3.3.5l.8.3 1 .4q.3.1.6.5.2.3.2.8l-.2 1-.8.6q-.5.2-1.1.2m5.7 0-1.5-.4-1-1a3 3 0 0 1-.4-1.6q0-.8.3-1.5.4-.7 1.1-1a3 3 0 0 1 1.5-.5q.8 0 1.5.4t1.1 1.1.4 1.5-.4 1.6-1 1-1.6.4m0-1.3q.7 0 1.1-.5t.5-1.2-.5-1.2-1-.5q-.8 0-1.2.5t-.4 1.2.4 1.3q.4.4 1.1.4m5.2.2h1.9v1h-3.3V3.8h1.4Zm4-4.8v3.5q0 .5.2.8t.8.3.7-.3.3-.8V3.7h1.4v3.5q0 .8-.3 1.3l-1 .8q-.5.3-1.2.3t-1.2-.3l-.9-.8q-.3-.5-.3-1.3V3.7Zm6.5 6q-.6 0-1.1-.3l-.8-.6q-.3-.4-.4-1h1.6q0 .3.2.5t.5.2.5-.2L74 8l-.2-.3-.4-.3-.5-.2-1-.3-.6-.5q-.2-.4-.2-1 0-.8.5-1.2.6-.5 1.6-.5t1.5.5.7 1.3h-1.6l-.2-.5-.5-.1-.4.1-.1.4q0 .3.2.5l.9.3.9.4q.3.1.6.5.2.3.2.8l-.2 1-.8.6q-.4.2-1 .2m4.3-5.9v5.8h-1.4V3.7ZM84 9.5h-1.4L80.2 6v3.6h-1.4V3.7h1.4l2.4 3.6V3.7H84Zm3.2-5.8q1 0 1.6.4t1 1 .4 1.5a3 3 0 0 1-.3 1.6q-.4.6-1.1 1-.7.3-1.6.3H85V3.7ZM87 8.3q.8 0 1.2-.4.5-.5.5-1.3t-.5-1.2-1.2-.5h-.7v3.4Zm6.7 1.3-1.5-.4-1.1-1a3 3 0 0 1-.4-1.6q0-.8.4-1.5t1-1a3 3 0 0 1 1.6-.5q.7 0 1.5.4.7.4 1 1.1.5.7.5 1.5t-.4 1.6q-.4.6-1.1 1t-1.5.4m0-1.3q.7 0 1-.5.5-.4.5-1.2T95 5.4t-1.1-.5-1.1.5q-.5.4-.5 1.2t.5 1.3 1 .4m0 0"></path></g></g><g clip-path="url(#s)" transform="translate(11 3)"><g clip-path="url(#t)"><path d="m9 9-.8-.8Q7.6 8 6.9 8q-1.3 0-2 .9Q4 9.6 4 11t.8 2.3a3 3 0 0 0 2.2.8q1 0 1.6-.4t1-1.5H6.4v-1.9H12v2.5a5 5 0 0 1-1 1.8 5 5 0 0 1-1.8 1.3q-1 .6-2.4.6-1.6 0-2.8-.7a5 5 0 0 1-2-2q-.7-1.2-.7-2.8t.8-3a5 5 0 0 1 2-1.9q1.2-.7 2.8-.7 2 0 3.3 1T11.9 9Zm0 0"></path></g></g><g clip-path="url(#u)" transform="translate(10 3)"><g clip-path="url(#v)"><use href="#w"></use></g></g><g clip-path="url(#x)"><g clip-path="url(#y)" transform="translate(1 8)"><g clip-path="url(#z)"><use href="#e"></use></g></g></g><g clip-path="url(#A)"><g clip-path="url(#B)" transform="translate(1)"><g clip-path="url(#C)"><use href="#g"></use></g></g></g><g clip-path="url(#D)"><g clip-path="url(#E)" transform="translate(1 6)"><g clip-path="url(#F)"><use href="#i"></use></g></g></g><g clip-path="url(#G)"><g clip-path="url(#H)" transform="translate(10)"><g clip-path="url(#I)"><path d="M.9 7.6V0h1v7.6Zm0 0"></path></g></g></g><g clip-path="url(#J)"><g clip-path="url(#K)" transform="translate(1)"><g clip-path="url(#L)"><path d="M1 7.6V0h1v7.6Zm0 0"></path></g></g></g><g clip-path="url(#M)"><g clip-path="url(#N)" transform="translate(20 26)"><g clip-path="url(#O)"><use href="#k"></use></g></g></g><g clip-path="url(#P)"><g clip-path="url(#Q)" transform="translate(20 17)"><g clip-path="url(#R)"><path d="M.9.8h10V2H1Zm0 0"></path></g></g></g><g clip-path="url(#S)"><g clip-path="url(#T)" transform="translate(20 24)"><g clip-path="url(#U)"><path d="M.9.3h10v1H1Zm0 0"></path></g></g></g><g clip-path="url(#V)"><g clip-path="url(#W)" transform="translate(29 17)"><g clip-path="url(#X)"><path d="M.9 8.4V.8h1v7.6Zm0 0"></path></g></g></g><g clip-path="url(#Y)"><g clip-path="url(#Z)" transform="translate(20 17)"><g clip-path="url(#aa)"><path d="M.9 8.4V.8h1v7.6Zm0 0"></path></g></g></g><path d="M25.5 5.5h-.7v-.7h.7m-1.5.7h-.7v-.7h.7m-1.4.7h-.7v-.7h.7m-1.5.7h-.7v-.7h.7m-1.4.7h-.8v-.7h.8m-1.5.7h-.7v-.7h.7m-1.4.7H16v-.7h.8m-1.5.7h-.7v-.7h.7m-1.4.7H13v-.7h.8m-1.5.7H12v-.7h.4M6.3 22.4v-.7H7v.7m-.7-1.5v-.7H7v.7m-.7-1.4v-.7H7v.7M6.3 18v-.7H7v.7m-.7-1.4v-.7H7v.7M6.3 15v-.7H7v.7m-.7-1.4V13H7v.7m-.7-1.5v-.7H7v.7m-.7-1.4V10H7v.7m-.7-1.5V9H7v.4m13.7 13.2h-.8v-.7h.8m-1.5.7h-.7v-.7h.7m-1.4.7H17v-.7h.8m-1.5.7h-.7v-.7h.7m-1.4.7H14v-.7h.8m-1.5.7h-.7v-.7h.7m-1.4.7h-.8v-.7h.8m-1.5.7h-.7v-.7h.7m-1.4.7h-.8v-.7H9m-1.5.7h-.4v-.7h.4"></path><g clip-path="url(#ab)" transform="translate(10 3)"><g clip-path="url(#ac)"><path d="M8.7 9.3 8 8.6q-.5-.3-1.1-.3-1.2 0-1.8.8-.7.7-.7 2t.7 2.1 2 .8q.9 0 1.5-.5t.8-1.2h.3v.3H6.1v-2.5h6.3V13a6 6 0 0 1-3 3.4q-1 .6-2.5.6-1.7 0-3-.8a5 5 0 0 1-2-2Q1 12.8 1 11t.8-3a5 5 0 0 1 2-2q1.3-.8 3-.8 2 0 3.4 1T12.1 9v.3H8.9Zm.5-.3-.2.1v-.3h2.9v.3l-.3.1q-.4-1.5-1.6-2.4t-3.1-.9q-1.5 0-2.7.7a5 5 0 0 0-1.8 1.8q-.7 1.2-.7 2.7t.7 2.7a5 5 0 0 0 1.8 1.8q1.2.7 2.7.7 1.3 0 2.3-.5a5 5 0 0 0 2.6-3h.3-.3v-2.4h.3v.3H6.4v-.3h.3v2h-.3V12H10l-.1.3q-.4 1-1.1 1.6-.7.5-1.8.5-1.5 0-2.4-.9-1-.9-1-2.5 0-1.5 1-2.4.8-1 2.2-1 .8 0 1.4.4.6.3 1 .9m0 0"></path><use href="#w"></use></g></g><path d="M25.8 18.3v-.8h.7v.8m-.7-1.5v-.7h.7v.7m-.7-1.4v-.8h.7v.8m-.7-1.5v-.7h.7v.7m-.7-1.4v-.8h.7v.8m-.7-1.5v-.7h.7v.7m-.7-1.4v-.8h.7v.8M25.8 8v-.7h.7V8m-.7-1.5V6h.7v.7m-.7-1.4v-.5h.7v.5"></path></svg>